<?xml version="1.0" encoding="utf-8"?>
<!-- Generator: Adobe Illustrator 18.0.0, SVG Export Plug-In . SVG Version: 6.00 Build 0)  -->
<!DOCTYPE svg PUBLIC "-//W3C//DTD SVG 1.1//EN" "http://www.w3.org/Graphics/SVG/1.1/DTD/svg11.dtd">
<svg version="1.1" id="Capa_1" xmlns="http://www.w3.org/2000/svg" xmlns:xlink="http://www.w3.org/1999/xlink" x="0px" y="0px"
	 width="194px" height="26px" viewBox="0 0 194 26" enable-background="new 0 0 194 26" xml:space="preserve">
<path d="M90.7,3.4c-2,0-3.7,0.4-5.4,1.2c-0.6-0.5-1.3-0.7-2-0.7c-1.8,0-3.2,1.4-3.2,3.2c0,0.6,0.2,1.2,0.5,1.7
	c-1.1,1.7-1.7,3.7-1.7,5.9c0,3.1,1.2,5.8,3.4,8c2.3,2.2,5.1,3.3,8.3,3.3c3.2,0,6-1.1,8.3-3.3c2.3-2.2,3.4-4.9,3.4-8
	c0-3.1-1.1-5.8-3.4-8C96.7,4.5,93.9,3.4,90.7,3.4z M96.8,20.8c-1.9,1.8-4.2,2.8-6.9,2.8c-2.7,0-5-0.9-6.9-2.8
	c-1.9-1.8-2.8-4.1-2.8-6.8c0-1.7,0.4-3.2,1.1-4.5c0.5,0.5,1.3,0.7,2,0.7c1.8,0,3.2-1.4,3.2-3.2c0-0.7-0.2-1.3-0.6-1.8
	c1.2-0.5,2.6-0.8,4-0.8c2.7,0,5.1,0.9,6.9,2.8c1.9,1.8,2.8,4.1,2.8,6.8C99.7,16.6,98.7,18.9,96.8,20.8z"/>
<path d="M86.4,3.4L86.4,3.4c1.1,0,1.7-0.8,1.7-1.7c0-0.9-0.7-1.7-1.7-1.7c-1,0-1.7,0.7-1.7,1.7C84.8,2.6,85.4,3.4,86.4,3.4z"/>
<path d="M14.7,13.7H2.3V4.6H0v20.5h2.3v-9.3h12.5v9.3H17V4.6h-2.3V13.7z"/>
<path d="M31.8,4.5l-9.5,20.6h2.4l3.1-6.8h9.2l3.1,6.8h2.4L33.1,4.5H31.8z M28.8,16.2l3.7-8l3.7,8H28.8z"/>
<path d="M49.6,4.6h-2.3v20.5h12.1v-2h-9.8V4.6z"/>
<path d="M66.8,4.6h-2.3v20.5h12.1v-2h-9.8V4.6z"/>
<path d="M126.8,20.3l-6.4-15.7h-1l-6.4,15.7l-6.3-15.7h-2.4l8.3,20.7h0.9l6.4-16l6.4,16h0.9l8.3-20.7h-2.4L126.8,20.3z"/>
<path d="M142.7,15.8h9v-2h-9V6.6h9.3v-2h-11.6v20.5h11.8v-2h-9.5V15.8z"/>
<path d="M160.2,15.8h9v-2h-9V6.6h9.3v-2h-11.6v20.5h11.8v-2h-9.5V15.8z"/>
<path d="M191.7,4.6v16.6L177.2,4.6h-1.9v20.5h2.3V8.5l14.5,16.6h1.8V4.6H191.7z"/>
</svg>
